PathFileType	4	(X/Y/Z)	Patient4_TMGait_0pt4_03_right_21.trc.trc
DataRate	CameraRate	NumFrames	NumMarkers	Units	OrigDataRate	OrigDataStartFrame	OrigNumFrames
75.268817204301	75.268817204301	4	33	mm	75.268817204301	106	       141
Frame#	Time	Sacral			L.Shoulder			Chest			R.Shoulder			Neck			R.ASIS			L.ASIS			R.Thigh.Superior			R.Thigh.Lateral			R.Thigh.Inferior			R.Patella			L.Thigh.Superior			L.Thigh.Lateral			L.Thigh.Inferior			L.Patella			L.Shank.Superior			L.Shank.Lateral			L.Shank.Inferior			R.Shank.Superior			R.Shank.Lateral			R.Shank.Inferior			R.Heel			R.Midfoot.Superior			R.Midfoot.Lateral			R.Toe			L.Heel			L.Midfoot.Lateral			L.Midfoot.Superior			L.Toe			L.Elbow			L.Wrist			R.Elbow			R.Wrist			
		X1	Y1	Z1	X2	Y2	Z2	X3	Y3	Z3	X4	Y4	Z4	X5	Y5	Z5	X6	Y6	Z6	X7	Y7	Z7	X8	Y8	Z8	X9	Y9	Z9	X10	Y10	Z10	X11	Y11	Z11	X12	Y12	Z12	X13	Y13	Z13	X14	Y14	Z14	X15	Y15	Z15	X16	Y16	Z16	X17	Y17	Z17	X18	Y18	Z18	X19	Y19	Z19	X20	Y20	Z20	X21	Y21	Z21	X22	Y22	Z22	X23	Y23	Z23	X24	Y24	Z24	X25	Y25	Z25	X26	Y26	Z26	X27	Y27	Z27	X28	Y28	Z28	X29	Y29	Z29	X30	Y30	Z30	X31	Y31	Z31	X32	Y32	Z32	X33	Y33	Z33	

106	28.175000000000	882.284907755081	1008.786487245727	440.524054875083	1090.871199949087	1431.415824789880	254.826369957730	1179.664395579864	1362.026229699750	423.351551743492	1087.965953327448	1439.240255949044	591.733564655392	1067.428917290408	1496.054735988898	412.070608644783	1107.355519715773	948.942678606101	565.143347020530	1103.712410188064	961.041930078715	291.015305884862	1197.205508989523	783.703916281659	540.059090652761	1162.050693754438	664.783350601824	618.661903388629	1255.375612390756	628.512762060706	542.387856664083	1279.587445487175	518.661695948107	569.093948143099	1147.670866052410	746.210806553899	324.509045225913	1054.579885648205	632.711946006343	264.846404161067	1134.538649016852	552.689170427641	330.238856010780	1132.101521653132	481.865323694300	340.102544478519	1097.560924624334	410.713583860815	331.191648089668	998.829495938544	304.693756112550	280.802429728289	1037.970079632463	189.089428954686	350.848317470351	1207.180815587264	439.824320097578	576.840527720140	1085.438080518169	395.063542387226	633.069900747635	1080.507658239694	283.217230556889	589.256566442546	888.450731694714	219.206049093036	553.279413187682	1050.369472091403	152.059498994080	603.814173550527	939.575751034589	156.661629632222	630.213036564734	1107.792067730085	35.710714665959	634.423280720512	898.923689111646	39.412747074866	391.617003369952	970.914149215516	36.337666470982	309.463224399761	1055.654555304961	96.210667673529	335.837750565943	1182.978119408908	41.128162655378	301.822079190761	1083.472439127410	1086.058986826270	118.210795908460	1235.328052749695	872.654543718584	152.067154558441	1014.214109319445	1103.821623707235	722.272984488943	1082.984862039302	855.883378509558	768.690343447440	
107	28.188285714286	881.049621464880	1009.838716289736	438.692886338504	1093.356970755882	1431.906048101843	254.894157232068	1180.057640154375	1361.963394451000	424.284726096736	1086.861763662161	1439.501998781158	591.671261745628	1068.347968583318	1496.478553274996	412.127759548416	1104.933325542270	949.998303850243	565.449934462816	1104.283792809880	961.486297506713	290.914433091046	1195.974848885964	786.534197599497	540.384076791815	1162.023855547235	667.275083072190	619.082533666608	1255.639134991844	631.901771254299	542.889467253081	1281.700469533733	523.273830583097	569.987481005482	1145.432775296238	745.536312086084	325.286156396193	1051.442296611600	632.909379053270	264.813662906109	1130.047060598785	552.176024540173	330.713800736867	1126.902351604012	481.514851120701	340.512029481398	1092.398720306288	410.681178276449	331.289236890216	993.664979171412	304.757715826999	280.759583690151	1032.631854960763	189.098554112100	350.860353053000	1212.243529321982	442.540903033667	577.565033326144	1092.745875849605	392.303603200219	633.512079263248	1093.124749338575	280.352034022311	589.695351323423	904.278828512081	206.095993013396	553.477435312305	1069.448861069896	148.659779541582	604.106257114926	958.835816532525	147.034995066045	630.694100155896	1133.577942651105	36.587816399460	635.297560991909	893.548353466347	39.450566789389	391.560639692567	965.558963153543	36.337954644855	309.430654710037	1050.312147256870	96.206619247185	335.800507928108	1177.629332708062	41.106271720757	301.785579910489	1086.843546222169	1086.777529031616	117.947415917333	1242.485628054896	876.792441693290	155.264314997719	1010.830230114907	1104.530221915472	722.099552981766	1078.342962970325	856.650845278631	770.133962648586	
108	28.201571428571	879.892472537050	1010.917233328342	436.957124209790	1096.020459322222	1432.296986721564	255.156282978090	1180.590239895514	1361.798707589151	425.404221898464	1085.913341100939	1439.712256747707	591.766325507042	1069.384281803953	1496.836116132153	412.338880404768	1102.475622158628	950.910675263578	565.951264545337	1104.951607265140	961.822967784788	290.938105383865	1194.337838136598	788.856188472626	540.961325930432	1161.172693598318	669.242636970371	619.615828009824	1254.946692500631	634.527821708021	543.523411029670	1282.689007635922	527.407023120742	570.936025588379	1143.028758694144	744.829591267938	326.294048971991	1048.258059354487	633.117075644079	264.825394485716	1125.424605719062	551.672383820922	331.268698180269	1121.542823110656	481.179617257990	340.949913964514	1087.119609748104	410.672610755542	331.403998523262	988.430641258027	304.821297056418	280.713093691926	1027.254157999417	189.121703027283	350.870359116952	1216.641744681375	444.823789111353	578.386014099853	1100.194594012344	388.561803220732	634.389061209805	1106.382684588555	276.828375444218	590.436685966758	921.732280554285	191.471206799724	554.421037127377	1089.927072301607	144.876404376623	604.749921347072	979.994833975762	136.456295120323	631.773293649226	1161.178270915918	37.865847831435	636.358461464899	888.178739231804	39.484752406741	391.501443016454	960.200137737081	36.331117312216	309.396949694504	1044.962527345793	96.201016269632	335.765524378115	1172.276463832532	41.088790770836	301.756822203619	1090.151935557353	1087.405591725980	117.904026596525	1249.482974902207	880.952936237908	158.624314959791	1007.754576955899	1105.097496949484	721.904735160402	1074.348642083032	857.259024894072	771.108878916100	
109	28.214857142857	878.836332656464	1011.979866767195	435.346011077118	1098.821346789212	1432.563111432708	255.616698901490	1181.248329619154	1361.515962573231	426.702875021340	1085.124153515752	1439.846340797075	592.027924697269	1070.521653851017	1497.105289818673	412.706012024897	1100.037131806843	951.650503207446	566.644958993254	1105.626810050815	961.968435822571	291.106413659146	1192.299692109229	790.566432404185	541.776075222126	1159.459643852591	670.600177141677	620.241393468344	1253.250944240778	636.281481233962	544.252232534305	1282.488244295182	530.948554502796	571.852679731551	1140.487617635196	744.081678291806	327.493137413755	1045.055156094915	633.319819366798	264.874738108687	1120.724037934239	551.168282142687	331.874242010508	1116.086272992392	480.851434864028	341.389614112779	1081.774461812586	410.671539349267	331.525003851094	983.160926791071	304.879103416059	280.658080124063	1021.856880199741	189.150388828692	350.873869603115	1220.287680057136	446.648207043563	579.247894973027	1107.763337862239	383.983628582319	635.699011124804	1120.140731300338	272.857349503663	591.468005330901	940.784015039166	175.789022651788	556.157499038547	1111.568270037101	141.033620010852	605.756533135389	1002.913690980142	125.373452585957	633.464468247784	1190.132376566583	39.821965255174	637.538530304948	882.815488490386	39.514949119840	391.439762020215	954.837837259869	36.317472495306	309.360942247097	1039.606624394155	96.192147963175	335.731921705016	1166.919388726161	41.072623379668	301.736178148627	1093.425517112644	1087.911062457937	118.086276002964	1256.307556802596	885.064070297804	162.122985138035	1005.010234170441	1105.479826966267	721.669956951843	1071.003921155460	857.657433653624	771.647104535942	
